<mxfile host="app.diagrams.net" modified="2024-03-19T09:02:20.678Z" agent="Mozilla/5.0 (Windows NT 10.0; Win64; x64) AppleWebKit/537.36 (KHTML, like Gecko) Chrome/122.0.0.0 Safari/537.36 Edg/122.0.0.0" etag="tf0ys9WY0I27K4xwZWyi" version="24.0.7" type="device">
  <diagram name="Страница — 1" id="Y6z-5Ft8j7hnh8DkytoF">
    <mxGraphModel dx="1235" dy="825" grid="1" gridSize="10" guides="1" tooltips="1" connect="1" arrows="1" fold="1" page="1" pageScale="1" pageWidth="827" pageHeight="1169" math="0" shadow="0">
      <root>
        <mxCell id="0" />
        <mxCell id="1" parent="0" />
        <mxCell id="s3wmXBdy48ppAIHDKcGF-7" style="edgeStyle=orthogonalEdgeStyle;rounded=0;orthogonalLoop=1;jettySize=auto;html=1;exitX=0.5;exitY=1;exitDx=0;exitDy=0;entryX=0.5;entryY=0;entryDx=0;entryDy=0;" edge="1" parent="1" source="s3wmXBdy48ppAIHDKcGF-1" target="s3wmXBdy48ppAIHDKcGF-2">
          <mxGeometry relative="1" as="geometry" />
        </mxCell>
        <mxCell id="s3wmXBdy48ppAIHDKcGF-1" value="Получить текущие значения klines&lt;br&gt;за вчерашний день" style="rounded=0;whiteSpace=wrap;html=1;" vertex="1" parent="1">
          <mxGeometry x="280" y="120" width="200" height="80" as="geometry" />
        </mxCell>
        <mxCell id="s3wmXBdy48ppAIHDKcGF-8" style="edgeStyle=orthogonalEdgeStyle;rounded=0;orthogonalLoop=1;jettySize=auto;html=1;exitX=0.5;exitY=1;exitDx=0;exitDy=0;" edge="1" parent="1" source="s3wmXBdy48ppAIHDKcGF-2" target="s3wmXBdy48ppAIHDKcGF-3">
          <mxGeometry relative="1" as="geometry" />
        </mxCell>
        <mxCell id="s3wmXBdy48ppAIHDKcGF-2" value="Записать значения klines&lt;br&gt;в redis в формате&lt;br&gt;Ticker: price" style="rounded=0;whiteSpace=wrap;html=1;" vertex="1" parent="1">
          <mxGeometry x="280" y="240" width="200" height="80" as="geometry" />
        </mxCell>
        <mxCell id="s3wmXBdy48ppAIHDKcGF-9" style="edgeStyle=orthogonalEdgeStyle;rounded=0;orthogonalLoop=1;jettySize=auto;html=1;exitX=0.5;exitY=1;exitDx=0;exitDy=0;entryX=0.5;entryY=0;entryDx=0;entryDy=0;" edge="1" parent="1" source="s3wmXBdy48ppAIHDKcGF-3" target="s3wmXBdy48ppAIHDKcGF-4">
          <mxGeometry relative="1" as="geometry" />
        </mxCell>
        <mxCell id="s3wmXBdy48ppAIHDKcGF-3" value="Прослушивать изменение цены в реальном времени" style="rounded=0;whiteSpace=wrap;html=1;" vertex="1" parent="1">
          <mxGeometry x="280" y="360" width="200" height="80" as="geometry" />
        </mxCell>
        <mxCell id="s3wmXBdy48ppAIHDKcGF-10" style="edgeStyle=orthogonalEdgeStyle;rounded=0;orthogonalLoop=1;jettySize=auto;html=1;exitX=0;exitY=0.5;exitDx=0;exitDy=0;" edge="1" parent="1" source="s3wmXBdy48ppAIHDKcGF-4" target="s3wmXBdy48ppAIHDKcGF-5">
          <mxGeometry relative="1" as="geometry" />
        </mxCell>
        <mxCell id="s3wmXBdy48ppAIHDKcGF-12" value="Да" style="edgeLabel;html=1;align=center;verticalAlign=middle;resizable=0;points=[];" vertex="1" connectable="0" parent="s3wmXBdy48ppAIHDKcGF-10">
          <mxGeometry x="-0.1871" y="3" relative="1" as="geometry">
            <mxPoint as="offset" />
          </mxGeometry>
        </mxCell>
        <mxCell id="s3wmXBdy48ppAIHDKcGF-11" style="edgeStyle=orthogonalEdgeStyle;rounded=0;orthogonalLoop=1;jettySize=auto;html=1;exitX=1;exitY=0.5;exitDx=0;exitDy=0;" edge="1" parent="1" source="s3wmXBdy48ppAIHDKcGF-4" target="s3wmXBdy48ppAIHDKcGF-6">
          <mxGeometry relative="1" as="geometry" />
        </mxCell>
        <mxCell id="s3wmXBdy48ppAIHDKcGF-13" value="Нет" style="edgeLabel;html=1;align=center;verticalAlign=middle;resizable=0;points=[];" vertex="1" connectable="0" parent="s3wmXBdy48ppAIHDKcGF-11">
          <mxGeometry x="-0.3286" relative="1" as="geometry">
            <mxPoint as="offset" />
          </mxGeometry>
        </mxCell>
        <mxCell id="s3wmXBdy48ppAIHDKcGF-4" value="Если цена &amp;gt; значения kline за вчера" style="rhombus;whiteSpace=wrap;html=1;" vertex="1" parent="1">
          <mxGeometry x="255" y="470" width="250" height="130" as="geometry" />
        </mxCell>
        <mxCell id="s3wmXBdy48ppAIHDKcGF-14" style="edgeStyle=orthogonalEdgeStyle;rounded=0;orthogonalLoop=1;jettySize=auto;html=1;entryX=0.5;entryY=0;entryDx=0;entryDy=0;exitX=0.5;exitY=1;exitDx=0;exitDy=0;" edge="1" parent="1" source="s3wmXBdy48ppAIHDKcGF-18" target="s3wmXBdy48ppAIHDKcGF-16">
          <mxGeometry relative="1" as="geometry">
            <mxPoint x="360" y="790" as="targetPoint" />
            <mxPoint x="190" y="750" as="sourcePoint" />
          </mxGeometry>
        </mxCell>
        <mxCell id="s3wmXBdy48ppAIHDKcGF-19" style="edgeStyle=orthogonalEdgeStyle;rounded=0;orthogonalLoop=1;jettySize=auto;html=1;exitX=0.5;exitY=1;exitDx=0;exitDy=0;" edge="1" parent="1" source="s3wmXBdy48ppAIHDKcGF-5" target="s3wmXBdy48ppAIHDKcGF-18">
          <mxGeometry relative="1" as="geometry" />
        </mxCell>
        <mxCell id="s3wmXBdy48ppAIHDKcGF-5" value="Купить актив на N по маркету" style="rounded=0;whiteSpace=wrap;html=1;" vertex="1" parent="1">
          <mxGeometry x="135" y="580" width="120" height="60" as="geometry" />
        </mxCell>
        <mxCell id="s3wmXBdy48ppAIHDKcGF-15" style="edgeStyle=orthogonalEdgeStyle;rounded=0;orthogonalLoop=1;jettySize=auto;html=1;exitX=0.5;exitY=1;exitDx=0;exitDy=0;" edge="1" parent="1" source="s3wmXBdy48ppAIHDKcGF-6" target="s3wmXBdy48ppAIHDKcGF-16">
          <mxGeometry relative="1" as="geometry">
            <mxPoint x="400" y="790" as="targetPoint" />
          </mxGeometry>
        </mxCell>
        <mxCell id="s3wmXBdy48ppAIHDKcGF-6" value="Продать актив на M" style="rounded=0;whiteSpace=wrap;html=1;" vertex="1" parent="1">
          <mxGeometry x="520" y="720" width="120" height="60" as="geometry" />
        </mxCell>
        <mxCell id="s3wmXBdy48ppAIHDKcGF-17" style="edgeStyle=orthogonalEdgeStyle;rounded=0;orthogonalLoop=1;jettySize=auto;html=1;exitX=0.5;exitY=1;exitDx=0;exitDy=0;entryX=1;entryY=0.5;entryDx=0;entryDy=0;" edge="1" parent="1" source="s3wmXBdy48ppAIHDKcGF-16" target="s3wmXBdy48ppAIHDKcGF-3">
          <mxGeometry relative="1" as="geometry">
            <Array as="points">
              <mxPoint x="380" y="890" />
              <mxPoint x="650" y="890" />
              <mxPoint x="650" y="400" />
            </Array>
          </mxGeometry>
        </mxCell>
        <mxCell id="s3wmXBdy48ppAIHDKcGF-16" value="Записать значение покупки/продажи" style="rounded=0;whiteSpace=wrap;html=1;" vertex="1" parent="1">
          <mxGeometry x="320" y="970" width="120" height="60" as="geometry" />
        </mxCell>
        <mxCell id="s3wmXBdy48ppAIHDKcGF-18" value="Получить значение средств(монет/токенов)" style="rounded=0;whiteSpace=wrap;html=1;" vertex="1" parent="1">
          <mxGeometry x="100" y="760" width="190" height="90" as="geometry" />
        </mxCell>
        <mxCell id="s3wmXBdy48ppAIHDKcGF-20" value="&lt;h1 style=&quot;margin-top: 0px;&quot;&gt;legends&lt;/h1&gt;&lt;p&gt;size: USDT&lt;br&gt;funds: Some token/coin&lt;/p&gt;" style="text;html=1;whiteSpace=wrap;overflow=hidden;rounded=0;" vertex="1" parent="1">
          <mxGeometry x="770" y="980" width="180" height="120" as="geometry" />
        </mxCell>
      </root>
    </mxGraphModel>
  </diagram>
</mxfile>
